<svg width="15" height="15" viewBox="0 0 15 15" fill="none" xmlns="http://www.w3.org/2000/svg">
<path d="M7.42177 14.8435C6.44713 14.8435 5.48203 14.6516 4.58158 14.2786C3.68113 13.9056 2.86296 13.3589 2.17379 12.6697C0.781934 11.2779 0 9.39014 0 7.42177C0 5.45339 0.781934 3.56564 2.17379 2.17379C3.56564 0.781934 5.45339 0 7.42177 0C11.5037 0 14.8435 2.96871 14.8435 6.67959C14.8435 7.86062 14.3744 8.99327 13.5393 9.82838C12.7042 10.6635 11.5715 11.1327 10.3905 11.1327H9.05456C8.8319 11.1327 8.68347 11.2811 8.68347 11.5037C8.68347 11.578 8.75769 11.6522 8.75769 11.7264C9.05456 12.0975 9.20299 12.5428 9.20299 12.9881C9.27721 14.0271 8.46081 14.8435 7.42177 14.8435ZM7.42177 1.48435C5.84707 1.48435 4.33686 2.1099 3.22338 3.22338C2.1099 4.33686 1.48435 5.84707 1.48435 7.42177C1.48435 8.99647 2.1099 10.5067 3.22338 11.6202C4.33686 12.7336 5.84707 13.3592 7.42177 13.3592C7.64442 13.3592 7.79286 13.2107 7.79286 12.9881C7.79286 12.8397 7.71864 12.7654 7.71864 12.6912C7.42177 12.3201 7.27333 11.949 7.27333 11.5037C7.27333 10.4647 8.08973 9.6483 9.12877 9.6483H10.3905C11.1778 9.6483 11.9329 9.33552 12.4897 8.77878C13.0464 8.22204 13.3592 7.46694 13.3592 6.67959C13.3592 3.7851 10.6873 1.48435 7.42177 1.48435ZM3.3398 5.93741C3.93354 5.93741 4.45306 6.45694 4.45306 7.05068C4.45306 7.64442 3.93354 8.16394 3.3398 8.16394C2.74605 8.16394 2.22653 7.64442 2.22653 7.05068C2.22653 6.45694 2.74605 5.93741 3.3398 5.93741ZM5.56633 2.96871C6.16007 2.96871 6.67959 3.48823 6.67959 4.08197C6.67959 4.67571 6.16007 5.19524 5.56633 5.19524C4.97258 5.19524 4.45306 4.67571 4.45306 4.08197C4.45306 3.48823 4.97258 2.96871 5.56633 2.96871ZM9.27721 2.96871C9.87095 2.96871 10.3905 3.48823 10.3905 4.08197C10.3905 4.67571 9.87095 5.19524 9.27721 5.19524C8.68347 5.19524 8.16394 4.67571 8.16394 4.08197C8.16394 3.48823 8.68347 2.96871 9.27721 2.96871ZM11.5037 5.93741C12.0975 5.93741 12.617 6.45694 12.617 7.05068C12.617 7.64442 12.0975 8.16394 11.5037 8.16394C10.91 8.16394 10.3905 7.64442 10.3905 7.05068C10.3905 6.45694 10.91 5.93741 11.5037 5.93741Z" fill="#FFF5F5"/>
</svg>
