<svg width="14" height="12" viewBox="0 0 14 12" fill="none" xmlns="http://www.w3.org/2000/svg">
<path d="M11.9428 5.00055C11.8098 4.41186 11.2775 3.96869 10.6454 3.96869H8.95546C9.18833 3.57843 9.31475 3.12865 9.31475 2.64579C9.31475 1.94408 9.03435 1.27112 8.53525 0.774935C8.03615 0.278752 7.35923 0 6.65339 0C5.94755 0 5.27063 0.278752 4.77153 0.774935C4.27243 1.27112 3.99203 1.94408 3.99203 2.64579C3.99203 3.12865 4.11845 3.57843 4.35132 3.96869H2.66136C2.02928 3.96869 1.49701 4.41186 1.36395 5.00055C0.0266136 10.2987 0 10.4377 0 10.5832C0 10.934 0.140196 11.2705 0.389746 11.5186C0.639297 11.7667 0.97776 11.9061 1.33068 11.9061H11.9761C12.329 11.9061 12.6675 11.7667 12.917 11.5186C13.1666 11.2705 13.3068 10.934 13.3068 10.5832C13.3068 10.4377 13.2802 10.2987 11.9428 5.00055ZM6.65339 1.3229C7.00631 1.3229 7.34477 1.46227 7.59432 1.71036C7.84387 1.95845 7.98407 2.29494 7.98407 2.64579C7.98407 2.99665 7.84387 3.33313 7.59432 3.58122C7.34477 3.82931 7.00631 3.96869 6.65339 3.96869C6.30047 3.96869 5.96201 3.82931 5.71246 3.58122C5.46291 3.33313 5.32271 2.99665 5.32271 2.64579C5.32271 2.29494 5.46291 1.95845 5.71246 1.71036C5.96201 1.46227 6.30047 1.3229 6.65339 1.3229ZM8.64941 6.61448H5.98805V9.26027H7.31873V7.27593H8.64941V10.5832H5.98805C5.24952 10.5832 4.65737 9.99448 4.65737 9.26027V6.61448C4.65737 5.88027 5.24952 5.29159 5.98805 5.29159H8.64941V6.61448Z" fill="white"/>
</svg>
