<svg width="17" height="17" viewBox="0 0 17 17" fill="none" xmlns="http://www.w3.org/2000/svg">
<path d="M7.35587 2.10278C5.60498 2.10278 4.20426 3.5035 4.20426 5.25439C4.20426 5.68161 4.29531 6.10182 4.4634 6.49402C3.85408 7.08932 3.50391 7.90174 3.50391 8.75617C3.50391 10.5071 4.90462 11.9078 6.65551 11.9078C7.00569 11.9078 7.35587 11.8307 7.70605 11.7117V14.7092H9.10676V11.0463C9.45694 11.1444 9.80712 11.2074 10.1573 11.2074C10.6631 11.2074 11.164 11.1078 11.6314 10.9142C12.0987 10.7206 12.5234 10.4369 12.881 10.0792C13.2387 9.72152 13.5225 9.29688 13.716 8.82954C13.9096 8.3622 14.0093 7.86131 14.0093 7.35546C14.0093 6.84961 13.9096 6.34872 13.716 5.88138C13.5225 5.41404 13.2387 4.9894 12.881 4.63171C12.5234 4.27402 12.0987 3.99029 11.6314 3.79671C11.164 3.60313 10.6631 3.5035 10.1573 3.5035C10.0943 3.5035 10.0382 3.5035 9.9752 3.5035C9.39391 2.63505 8.4064 2.10278 7.35587 2.10278ZM7.35587 3.5035C8.28034 3.5035 9.04373 4.22486 9.10676 5.14934C9.42893 4.98825 9.80712 4.90421 10.1573 4.90421C10.8074 4.90421 11.4309 5.16247 11.8906 5.62217C12.3503 6.08186 12.6085 6.70535 12.6085 7.35546C12.6085 8.00557 12.3503 8.62906 11.8906 9.08875C11.4309 9.54845 10.8074 9.80671 10.1573 9.80671C9.48495 9.80671 8.84763 9.53357 8.37839 9.04332C8.23832 9.89075 7.50995 10.5071 6.65551 10.5071C6.19115 10.5071 5.7458 10.3226 5.41744 9.99424C5.08909 9.66589 4.90462 9.22054 4.90462 8.75617C4.90462 7.78968 5.46491 7.38347 6.30533 6.85821C5.74505 6.13684 5.60498 5.71662 5.60498 5.25439C5.60498 4.79002 5.78945 4.34468 6.1178 4.01632C6.44616 3.68797 6.8915 3.5035 7.35587 3.5035Z" fill="white"/>
</svg>
