<svg width="15" height="16" viewBox="0 0 15 16" fill="none" xmlns="http://www.w3.org/2000/svg">
<path d="M5.84607 5.0468H7.30759V9.37263H5.84607V5.0468ZM8.7691 0H4.38455V1.44194H8.7691V0ZM6.57683 13.6985C3.74879 13.6985 1.46152 11.4418 1.46152 8.65166C1.46152 5.8615 3.74879 3.60486 6.57683 3.60486C9.40486 3.60486 11.6921 5.8615 11.6921 8.65166C12.2037 8.65166 12.686 8.74539 13.1537 8.904C13.1537 8.81748 13.1537 8.73818 13.1537 8.65166C13.1537 7.1232 12.6129 5.71731 11.7141 4.60701L12.7517 3.58323C12.4229 3.21553 12.0941 2.88389 11.7214 2.56666L10.6837 3.60486C9.55102 2.69643 8.12604 2.16291 6.57683 2.16291C2.94496 2.16291 0 5.06843 0 8.65166C0 12.2349 2.94496 15.1404 6.57683 15.1404C7.00798 15.1404 7.42451 15.0971 7.82642 15.0178C7.59989 14.5997 7.43912 14.131 7.36605 13.6336C7.10297 13.6696 6.84721 13.6985 6.57683 13.6985ZM13.4021 10.6992L10.7787 13.2875L9.61678 12.1412L8.7691 12.9775L10.7787 15.1404L14.2498 11.7158L13.4021 10.6992Z" fill="white"/>
</svg>
