<svg width="13" height="13" viewBox="0 0 13 13" fill="none" xmlns="http://www.w3.org/2000/svg">
<path d="M11.7594 4.17603C12.4885 3.44686 12.156 2.59519 11.7594 2.18103L10.0094 0.431027C9.27436 -0.29814 8.42853 0.0343605 8.01436 0.431027L7.02269 1.42853H5.51186C4.40353 1.42853 3.76186 2.01186 3.43519 2.68269L0.845194 5.27269V7.60603L0.431027 8.01436C-0.29814 8.74936 0.0343605 9.59519 0.431027 10.0094L2.18103 11.7594C2.49603 12.0744 2.83436 12.191 3.15519 12.191C3.56936 12.191 3.94853 11.9869 4.17603 11.7594L5.75103 10.1785H7.84519C8.83686 10.1785 9.33853 9.56019 9.51936 8.95353C10.1785 8.77853 10.5402 8.27686 10.686 7.78686C11.5902 7.55353 11.9285 6.69603 11.9285 6.09519V4.34519H11.5844L11.7594 4.17603ZM10.7619 6.09519C10.7619 6.35769 10.651 6.67853 10.1785 6.67853H9.59519V7.26186C9.59519 7.52436 9.48436 7.84519 9.01186 7.84519H8.42853V8.42853C8.42853 8.69103 8.31769 9.01186 7.84519 9.01186H5.27269L3.35936 10.9252C3.17853 11.0944 3.07353 10.9952 3.00936 10.931L1.26519 9.19269C1.09603 9.01186 1.19519 8.90686 1.25936 8.84269L2.01186 8.08436V5.75103L3.17853 4.58436V5.51186C3.17853 6.21769 3.64519 7.26186 4.92853 7.26186C6.21186 7.26186 6.67853 6.21769 6.67853 5.51186H10.7619V6.09519ZM10.931 3.34769L9.93936 4.34519H5.51186V5.51186C5.51186 5.77436 5.40103 6.09519 4.92853 6.09519C4.45603 6.09519 4.34519 5.77436 4.34519 5.51186V3.76186C4.34519 3.49353 4.44436 2.59519 5.51186 2.59519H7.50103L8.83103 1.26519C9.01186 1.09603 9.11686 1.19519 9.18103 1.25936L10.9252 2.99769C11.0944 3.17853 10.9952 3.28353 10.931 3.34769Z" fill="white"/>
</svg>
