<svg width="18" height="15" viewBox="0 0 18 15" fill="none" xmlns="http://www.w3.org/2000/svg">
<path d="M5.89551 0.686523C6.07673 1.11032 6.4124 1.45234 6.79004 1.69531C7.36228 2.06343 8.1119 2.26953 8.90625 2.26953C9.70063 2.26951 10.4502 2.06348 11.0225 1.69531C11.4001 1.45232 11.7358 1.11036 11.917 0.686523H12.4619L17.0957 5.14941C17.1195 5.17231 17.1259 5.19472 17.126 5.21289C17.126 5.23105 17.1194 5.25346 17.0957 5.27637L14.7725 7.51172C14.7482 7.53348 14.7115 7.55078 14.665 7.55078C14.6174 7.5507 14.5798 7.53334 14.5557 7.51074L14.5264 7.4834L14.4941 7.45996L13.4258 6.66797L12.3301 5.85742V13.458C12.3301 13.4774 12.3226 13.5015 12.2998 13.5234C12.2762 13.5461 12.2385 13.5635 12.1943 13.5635H5.61719C5.57326 13.5634 5.53629 13.546 5.5127 13.5234C5.48995 13.5015 5.48145 13.4774 5.48145 13.458V5.81738L4.38672 6.62891L3.31836 7.41992L3.28223 7.44629L3.25 7.47754C3.22487 7.50163 3.18883 7.5166 3.14648 7.5166C3.10419 7.51651 3.06803 7.50167 3.04297 7.47754L3.03906 7.47363L0.71582 5.27637H0.716797C0.692987 5.25341 0.686523 5.23108 0.686523 5.21289C0.68656 5.19471 0.693004 5.17232 0.716797 5.14941L5.35059 0.686523H5.89551Z" stroke="#FFF8F8" stroke-width="1.3729"/>
</svg>
